<svg width="452" height="139" viewBox="0 0 452 139" fill="none" xmlns="http://www.w3.org/2000/svg">
<g filter="url(#filter0_d_710_66091)">
<path d="M77.6002 0.933276C77.0669 1.33328 76.6669 3.73328 76.6669 6.26661C76.6669 9.99994 76.2669 10.6666 73.4669 10.6666C68.0002 10.6666 66.0002 12.1333 66.0002 15.9999V19.5999L53.0669 20.3999C34.1335 21.7333 34.6669 21.3333 27.8669 34.9333C22.1335 46.2666 19.3335 48.6666 19.3335 42.1333C19.3335 39.4666 18.5335 38.9333 13.7335 38.2666C5.46686 37.1999 0.800193 41.7333 8.40019 43.4666C14.0002 44.7999 19.3335 47.8666 19.3335 49.7333C19.3335 50.5333 16.9335 52.6666 14.0002 54.3999C5.20019 59.3333 4.00019 63.3333 5.86686 80.6666C6.80019 88.6666 8.00019 100.667 8.40019 107.333L9.33353 119.333L23.6002 119.733L37.8669 120.133L38.8002 116.667C40.1335 111.333 37.4669 109.333 28.5335 109.333C24.1335 109.333 20.6669 108.8 20.6669 108C20.6669 107.2 29.0669 106.667 43.3335 106.667H66.0002V117.067C66.0002 123.333 66.6669 128.133 67.6002 129.067C69.8669 131.333 152.8 131.333 155.067 129.067C156 128.133 156.667 125.467 156.667 123.067C156.667 119.2 157.067 118.667 160.4 118.667C162.4 118.667 164.8 118 165.734 117.067C168 114.8 168 3.86661 165.734 1.59994C164.534 0.399943 152.8 -5.73099e-05 121.334 -5.73099e-05C97.7335 -5.73099e-05 78.0002 0.399943 77.6002 0.933276ZM138.934 21.3333C139.067 26.1333 139.2 30.6666 139.2 31.5999C139.334 32.5333 142.267 33.3333 147.067 33.5999L154.667 33.9999L155.067 78.9333C155.2 110.667 154.934 124 153.867 124C150.534 124 132 116.933 124.934 113.067L117.334 108.667L128 107.867L138.667 107.2L127.067 106.933C115.734 106.667 115.467 106.667 108.4 100.933L101.334 95.3333L119.734 94.9333C144.667 94.3999 143.867 91.9999 118.667 91.9999H99.4669L96.0002 87.0666C94.1335 84.2666 92.6669 81.5999 92.6669 81.0666C92.6669 80.5333 103.067 79.8666 115.734 79.5999L138.667 79.1999L114.534 78.9333L90.5335 78.6666L88.2669 73.9999C87.0669 71.3333 86.0002 68.6666 86.0002 67.9999C86.0002 67.1999 96.9335 66.5333 112.4 66.2666L138.667 65.9999L111.734 65.5999L84.8002 65.3333L82.6669 58.2666C80.4002 51.0666 78.2669 17.9999 79.7335 14.1333C80.5335 12.1333 84.0002 11.9999 109.6 12.2666L138.667 12.6666L138.934 21.3333ZM147.2 23.3333C150.134 27.3333 152.667 30.9333 152.667 31.3333C152.667 31.7333 150 31.9999 146.667 31.9999H140.667V23.9999C140.667 19.5999 140.934 15.9999 141.2 15.9999C141.467 15.9999 144.134 19.3333 147.2 23.3333ZM66.0002 41.5999V56.3999L47.0669 55.4666C36.5335 54.9333 27.7335 54.1333 27.3335 53.8666C27.0669 53.4666 29.6002 47.5999 32.9335 40.7999L39.2002 28.2666L49.6002 27.3333C55.3335 26.9333 60.9335 26.3999 62.0002 26.1333C63.0669 25.9999 64.4002 25.9999 65.0669 26.2666C65.6002 26.5333 66.0002 33.4666 66.0002 41.5999ZM27.6002 69.4666C41.0669 74.6666 41.8669 75.1999 38.6669 78.6666C36.8002 80.6666 34.5335 81.3333 28.8002 81.3333C22.4002 81.3333 20.9335 80.7999 17.0669 77.0666C12.9335 73.0666 11.4669 68.3999 13.6002 66.2666C14.9335 64.7999 15.6002 65.0666 27.6002 69.4666ZM65.7335 78.9333L66.1335 82.6666H56.1335C50.5335 82.6666 46.0002 82.2666 46.0002 81.5999C46.0002 81.0666 46.9335 79.1999 48.1335 77.5999C50.0002 74.9333 51.2002 74.5333 57.7335 74.9333C64.9335 75.3333 65.3335 75.5999 65.7335 78.9333ZM65.7335 94.9333L65.3335 99.3333L54.0002 99.7333C41.8669 100.133 38.9335 98.7999 40.2669 93.3333C40.9335 90.9333 42.1335 90.6666 53.6002 90.6666H66.1335L65.7335 94.9333Z" fill="#5A4EF9"/>
<path d="M89.7336 39.6008C93.6003 39.8674 99.6003 39.8674 103.067 39.6008C106.534 39.3341 103.334 39.2008 96.0003 39.2008C88.667 39.2008 85.867 39.3341 89.7336 39.6008Z" fill="#5A4EF9"/>
<path d="M97.0668 52.9338C104.933 53.2005 117.6 53.2005 125.067 52.9338C132.533 52.8005 126.133 52.5338 110.667 52.5338C95.2001 52.5338 89.2001 52.8005 97.0668 52.9338Z" fill="#5A4EF9"/>
<path d="M180.667 26.6674C180.667 27.3341 185.2 38.4008 190.934 51.3341L201.067 74.8008L206.4 74.4008L211.734 74.0008L222 50.0008L232.4 26.0008L227.734 25.6008C225.2 25.3341 222.8 25.4674 222.4 25.7341C222.134 26.1341 218.667 33.7341 214.8 42.6674C210.8 51.4674 207.2 58.9341 206.667 59.0674C206.134 59.2008 202.4 51.7341 198.267 42.2674L191.067 25.3341H185.867C182.934 25.3341 180.667 25.8674 180.667 26.6674Z" fill="#5A4EF9"/>
<path d="M251.6 30.9337C242.4 51.467 232.667 73.467 232.667 74.0003C232.667 74.4003 235.067 74.667 237.867 74.667C242.667 74.667 243.2 74.267 245.2 69.3337L247.334 64.0003H259.067H270.934L273.067 69.3337C275.067 74.4003 275.467 74.667 280.667 74.667C284.667 74.667 286.134 74.1337 285.6 72.9337C285.2 72.1337 280.267 60.9337 274.667 48.267L264.267 25.3337H259.2C254.534 25.3337 253.867 25.7337 251.6 30.9337ZM263.867 47.3337L267.067 55.3337L259.734 55.7337C255.734 56.0003 252.134 55.867 251.734 55.6003C251.467 55.2003 252.8 51.067 254.8 46.1337C256.8 41.3337 258.934 37.7337 259.6 38.4003C260.134 38.9337 262.134 42.9337 263.867 47.3337Z" fill="#5A4EF9"/>
<path d="M292.667 49.867V74.667H298H303.334V64.667V54.667H314.667H326V64.667V74.667H331.334H336.667V50.0003V25.3337H331.334H326V35.3337V45.3337H314.667H303.467L303.067 35.6003L302.667 26.0003L297.734 25.6003L292.667 25.2003V49.867Z" fill="#5A4EF9"/>
<path d="M362.267 30.9337C353.067 51.467 343.333 73.467 343.333 74.0003C343.333 74.4003 345.733 74.667 348.533 74.667C353.333 74.667 353.867 74.267 355.867 69.3337L358 64.0003H369.733H381.6L383.733 69.3337C385.733 74.4003 386.133 74.667 391.333 74.667C395.333 74.667 396.8 74.1337 396.267 72.9337C395.867 72.1337 390.933 60.9337 385.333 48.267L374.933 25.3337H369.867C365.2 25.3337 364.533 25.7337 362.267 30.9337ZM374.133 46.267L377.6 55.3337L370.4 55.7337C366.267 56.0003 362.8 55.867 362.4 55.6003C361.733 54.8003 368.667 37.3337 369.867 37.3337C370.267 37.3337 372.267 41.3337 374.133 46.267Z" fill="#5A4EF9"/>
<path d="M403.333 50.0003V74.667H408.4H413.333L413.2 60.0003C413.2 51.867 413.467 45.3337 413.867 45.3337C414.4 45.3337 420 52.0003 426.533 60.0003C437.333 73.3337 438.933 74.667 442.933 74.667H447.333V50.0003V25.3337H442H436.8L436.4 40.267L436 55.3337L423.6 40.267C412.933 27.467 410.533 25.3337 407.2 25.3337H403.333V50.0003Z" fill="#5A4EF9"/>
<path d="M212.667 106C212.667 112.8 213.067 114.667 214.667 114.667C215.734 114.667 216.667 113.467 216.667 112C216.667 110.533 217.6 109.333 218.667 109.333C219.734 109.333 221.334 110.533 222.267 112C224.667 115.733 228 115.6 225.867 111.867C224.8 109.867 224.8 108.667 225.867 107.6C228.267 105.2 227.6 100.267 224.8 98.6668C223.334 98.0001 220 97.3335 217.467 97.3335H212.667V106ZM222.934 101.467C225.2 103.733 223.467 106.667 219.867 106.667C217.334 106.667 216.667 106 216.667 103.333C216.667 99.7335 220.134 98.6668 222.934 101.467Z" fill="#5A4EF9"/>
<path d="M251.333 106V114.667H258C261.733 114.667 264.667 114 264.667 113.334C264.667 112.534 262.533 112 260 112C256.267 112 255.333 111.467 255.333 109.334C255.333 107.2 256.267 106.667 259.467 106.667C261.733 106.667 263.2 106.134 262.667 105.334C262.267 104.534 260.4 104 258.533 104C256.533 104 255.333 103.2 255.333 102C255.333 100.667 256.667 100 259.333 100C261.6 100 263.333 99.3337 263.333 98.667C263.333 97.867 260.667 97.3337 257.333 97.3337H251.333V106Z" fill="#5A4EF9"/>
<path d="M290.267 99.4671C282.267 105.067 290.533 117.467 299.867 113.867C303.467 112.534 302.267 110.667 298.267 111.467C294.267 112.267 290 109.467 290 106C290 102.534 294.267 99.7337 298.267 100.534C302.267 101.334 303.467 99.4671 299.867 98.1337C296.4 96.8004 293.467 97.2004 290.267 99.4671Z" fill="#5A4EF9"/>
<path d="M328.934 99.4672C324.934 102.267 324.934 109.734 328.934 112.534C335.467 117.067 343.334 113.467 343.334 106.001C343.334 101.067 339.6 97.3338 334.667 97.3338C333.2 97.3338 330.534 98.2672 328.934 99.4672ZM338.534 102.134C339.734 103.201 340.667 105.067 340.667 106.001C340.667 108.134 337.067 112.001 335.2 112.001C332 112.001 328.667 109.067 328.667 106.267C328.667 100.401 334.4 98.0005 338.534 102.134Z" fill="#5A4EF9"/>
<path d="M367.333 106C367.333 112.8 367.733 114.667 369.333 114.667C370.4 114.667 371.333 113.467 371.333 112C371.333 110.534 372.267 109.334 373.333 109.334C374.4 109.334 375.867 110.534 376.667 112C377.467 113.467 379.067 114.667 380.267 114.667C382 114.667 382 114.267 380.667 112.667C379.333 111.067 379.333 109.867 380.533 107.2C381.333 105.334 382 103.334 382 102.667C382 99.867 377.467 97.3337 372.533 97.3337H367.333V106ZM377.733 103.6C378.133 106.134 377.6 106.667 374.8 106.667C372 106.667 371.333 106 371.333 103.2C371.333 100.4 371.867 99.867 374.4 100.267C376.267 100.534 377.467 101.734 377.733 103.6Z" fill="#5A4EF9"/>
<path d="M406 106.134V115.067L412 114.401C419.6 113.467 422 111.467 422 105.867C422 100.401 418.133 97.334 411.067 97.334H406V106.134ZM417.2 102.134C418.4 103.201 419.333 105.067 419.333 106.001C419.333 108.934 415.2 112.134 412.133 111.734C409.867 111.467 409.2 110.267 408.933 105.601C408.533 100.401 408.8 100.001 411.867 100.001C413.6 100.001 416.133 100.934 417.2 102.134Z" fill="#5A4EF9"/>
</g>
<defs>
<filter id="filter0_d_710_66091" x="0.556152" y="0" width="450.777" height="138.767" filterUnits="userSpaceOnUse" color-interpolation-filters="sRGB">
<feFlood flood-opacity="0" result="BackgroundImageFix"/>
<feColorMatrix in="SourceAlpha" type="matrix" values="0 0 0 0 0 0 0 0 0 0 0 0 0 0 0 0 0 0 127 0" result="hardAlpha"/>
<feOffset dy="4"/>
<feGaussianBlur stdDeviation="2"/>
<feComposite in2="hardAlpha" operator="out"/>
<feColorMatrix type="matrix" values="0 0 0 0 0 0 0 0 0 0 0 0 0 0 0 0 0 0 0.25 0"/>
<feBlend mode="normal" in2="BackgroundImageFix" result="effect1_dropShadow_710_66091"/>
<feBlend mode="normal" in="SourceGraphic" in2="effect1_dropShadow_710_66091" result="shape"/>
</filter>
</defs>
</svg>
