<?xml version="1.0" standalone="no"?>
<!DOCTYPE svg PUBLIC "-//W3C//DTD SVG 20010904//EN"
 "http://www.w3.org/TR/2001/REC-SVG-20010904/DTD/svg10.dtd">
<svg version="1.0" xmlns="http://www.w3.org/2000/svg"
 width="351.000000pt" height="135.000000pt" viewBox="0 0 351.000000 135.000000"
 preserveAspectRatio="xMidYMid meet">

<g transform="translate(0.000000,135.000000) scale(0.100000,-0.100000)"
fill="#000000" stroke="none">
<path d="M627 1283 c-4 -3 -7 -21 -7 -40 0 -28 -3 -33 -24 -33 -41 0 -56 -11
-56 -40 l0 -27 -97 -6 c-142 -10 -138 -7 -189 -109 -43 -85 -64 -103 -64 -54
0 20 -6 24 -42 29 -62 8 -97 -26 -40 -39 42 -10 82 -33 82 -47 0 -6 -18 -22
-40 -35 -66 -37 -75 -67 -61 -197 7 -60 16 -150 19 -200 l7 -90 107 -3 107 -3
7 26 c10 40 -10 55 -77 55 -33 0 -59 4 -59 10 0 6 63 10 170 10 l170 0 0 -78
c0 -47 5 -83 12 -90 17 -17 639 -17 656 0 7 7 12 27 12 45 0 29 3 33 28 33 15
0 33 5 40 12 17 17 17 849 0 866 -9 9 -97 12 -333 12 -177 0 -325 -3 -328 -7z
m460 -153 c1 -36 2 -70 2 -77 1 -7 23 -13 59 -15 l57 -3 3 -337 c1 -238 -1
-338 -9 -338 -25 0 -164 53 -217 82 l-57 33 80 6 80 5 -87 2 c-85 2 -87 2
-140 45 l-53 42 138 3 c187 4 181 22 -8 22 l-144 0 -26 37 c-14 21 -25 41 -25
45 0 4 78 9 173 11 l172 3 -181 2 -180 2 -17 35 c-9 20 -17 40 -17 45 0 6 82
11 198 13 l197 2 -202 3 -202 2 -16 53 c-17 54 -33 302 -22 331 6 15 32 16
224 14 l218 -3 2 -65z m62 -15 c22 -30 41 -57 41 -60 0 -3 -20 -5 -45 -5 l-45
0 0 60 c0 33 2 60 4 60 2 0 22 -25 45 -55z m-609 -137 l0 -111 -142 7 c-79 4
-145 10 -148 12 -2 3 17 47 42 98 l47 94 78 7 c43 3 85 7 93 9 8 1 18 1 23 -1
4 -2 7 -54 7 -115z m-288 -209 c101 -39 107 -43 83 -69 -14 -15 -31 -20 -74
-20 -48 0 -59 4 -88 32 -31 30 -42 65 -26 81 10 11 15 9 105 -24z m286 -71 l3
-28 -75 0 c-42 0 -76 3 -76 8 0 4 7 18 16 30 14 20 23 23 72 20 54 -3 57 -5
60 -30z m0 -120 l-3 -33 -85 -3 c-91 -3 -113 7 -103 48 5 18 14 20 100 20 l94
0 -3 -32z"/>
<path d="M718 993 c29 -2 74 -2 100 0 26 2 2 3 -53 3 -55 0 -76 -1 -47 -3z"/>
<path d="M773 893 c59 -2 154 -2 210 0 56 1 8 3 -108 3 -116 0 -161 -2 -102
-3z"/>
<path d="M1400 1090 c0 -5 34 -88 77 -185 l76 -176 40 3 40 3 77 180 78 180
-35 3 c-19 2 -37 1 -40 -1 -2 -3 -28 -60 -57 -127 -30 -66 -57 -122 -61 -123
-4 -1 -32 55 -63 126 l-54 127 -39 0 c-22 0 -39 -4 -39 -10z"/>
<path d="M1932 1058 c-69 -154 -142 -319 -142 -323 0 -3 18 -5 39 -5 36 0 40
3 55 40 l16 40 88 0 89 0 16 -40 c15 -38 18 -40 57 -40 30 0 41 4 37 13 -3 6
-40 90 -82 185 l-78 172 -38 0 c-35 0 -40 -3 -57 -42z m92 -123 l24 -60 -55
-3 c-30 -2 -57 -1 -60 1 -2 3 8 34 23 71 15 36 31 63 36 58 4 -4 19 -34 32
-67z"/>
<path d="M2240 916 l0 -186 40 0 40 0 0 75 0 75 85 0 85 0 0 -75 0 -75 40 0
40 0 0 185 0 185 -40 0 -40 0 0 -75 0 -75 -85 0 -84 0 -3 73 -3 72 -37 3 -38
3 0 -185z"/>
<path d="M2762 1058 c-69 -154 -142 -319 -142 -323 0 -3 18 -5 39 -5 36 0 40
3 55 40 l16 40 88 0 89 0 16 -40 c15 -38 18 -40 57 -40 30 0 41 4 37 13 -3 6
-40 90 -82 185 l-78 172 -38 0 c-35 0 -40 -3 -57 -42z m89 -115 l26 -68 -54
-3 c-31 -2 -57 -1 -60 1 -5 6 47 137 56 137 3 0 18 -30 32 -67z"/>
<path d="M3070 915 l0 -185 38 0 37 0 -1 110 c0 61 2 110 5 110 4 0 46 -50 95
-110 81 -100 93 -110 123 -110 l33 0 0 185 0 185 -40 0 -39 0 -3 -112 -3 -113
-93 113 c-80 96 -98 112 -123 112 l-29 0 0 -185z"/>
<path d="M1640 495 c0 -51 3 -65 15 -65 8 0 15 9 15 20 0 11 7 20 15 20 8 0
20 -9 27 -20 18 -28 43 -27 27 1 -8 15 -8 24 0 32 18 18 13 55 -8 67 -11 5
-36 10 -55 10 l-36 0 0 -65z m77 34 c17 -17 4 -39 -23 -39 -19 0 -24 5 -24 25
0 27 26 35 47 14z"/>
<path d="M1930 495 l0 -65 50 0 c28 0 50 5 50 10 0 6 -16 10 -35 10 -28 0 -35
4 -35 20 0 16 7 20 31 20 17 0 28 4 24 10 -3 6 -17 10 -31 10 -15 0 -24 6 -24
15 0 10 10 15 30 15 17 0 30 5 30 10 0 6 -20 10 -45 10 l-45 0 0 -65z"/>
<path d="M2222 544 c-60 -42 2 -135 72 -108 27 10 18 24 -12 18 -30 -6 -62 15
-62 41 0 26 32 47 62 41 30 -6 39 8 12 18 -26 10 -48 7 -72 -10z"/>
<path d="M2512 544 c-30 -21 -30 -77 0 -98 49 -34 108 -7 108 49 0 37 -28 65
-65 65 -11 0 -31 -7 -43 -16z m72 -20 c9 -8 16 -22 16 -29 0 -16 -27 -45 -41
-45 -24 0 -49 22 -49 43 0 44 43 62 74 31z"/>
<path d="M2800 495 c0 -51 3 -65 15 -65 8 0 15 9 15 20 0 11 7 20 15 20 8 0
19 -9 25 -20 6 -11 18 -20 27 -20 13 0 13 3 3 15 -10 12 -10 21 -1 41 6 14 11
29 11 34 0 21 -34 40 -71 40 l-39 0 0 -65z m78 18 c3 -19 -1 -23 -22 -23 -21
0 -26 5 -26 26 0 21 4 25 23 22 14 -2 23 -11 25 -25z"/>
<path d="M3090 494 l0 -67 45 5 c57 7 75 22 75 64 0 41 -29 64 -82 64 l-38 0
0 -66z m84 30 c9 -8 16 -22 16 -29 0 -22 -31 -46 -54 -43 -17 2 -22 11 -24 46
-3 39 -1 42 22 42 13 0 32 -7 40 -16z"/>
<path d="M1910 105 c0 -38 2 -66 5 -63 8 8 8 118 1 125 -3 4 -6 -24 -6 -62z"/>
<path d="M207 153 c-4 -3 -7 -11 -7 -17 0 -6 5 -5 12 2 6 6 9 14 7 17 -3 3 -9
2 -12 -2z"/>
<path d="M482 99 c1 -57 2 -59 5 -16 3 33 8 45 16 40 7 -4 5 2 -3 13 -8 10
-16 21 -17 23 -2 2 -2 -25 -1 -60z"/>
<path d="M582 139 c-8 -12 -9 -18 -3 -15 6 4 11 -12 14 -41 3 -44 4 -42 5 15
1 34 1 62 -1 62 -1 0 -8 -9 -15 -21z"/>
<path d="M1766 145 c-9 -26 -7 -32 5 -12 6 10 9 21 6 23 -2 3 -7 -2 -11 -11z"/>
<path d="M2173 100 c0 -36 2 -50 4 -32 2 17 2 47 0 65 -2 17 -4 3 -4 -33z"/>
<path d="M2370 100 l0 -60 33 1 c30 2 30 2 5 6 -26 4 -28 8 -28 53 0 47 1 49
33 53 31 4 31 4 -5 5 l-38 2 0 -60z"/>
<path d="M3238 140 c-2 -7 -1 -31 2 -54 4 -31 10 -41 25 -43 16 -1 16 -1 3 3
-13 4 -18 16 -18 40 0 25 4 34 18 35 13 0 14 2 2 6 -8 3 -18 10 -21 16 -4 5
-8 4 -11 -3z"/>
<path d="M1240 120 c6 -11 13 -20 16 -20 2 0 0 9 -6 20 -6 11 -13 20 -16 20
-2 0 0 -9 6 -20z"/>
<path d="M1681 135 c0 -5 6 -21 14 -35 8 -14 14 -20 14 -15 0 6 -6 21 -14 35
-8 14 -14 21 -14 15z"/>
<path d="M332 118 c-14 -14 -16 -54 -4 -62 4 -3 8 10 8 27 -1 27 3 32 23 32
32 0 40 -25 9 -26 -18 -1 -19 -2 -4 -6 26 -7 42 12 26 32 -15 18 -41 20 -58 3z"/>
<path d="M650 126 c0 -2 11 -6 25 -8 13 -3 22 -1 19 3 -5 9 -44 13 -44 5z"/>
<path d="M785 123 c11 -3 24 -10 28 -17 6 -7 7 -6 4 4 -2 8 -14 16 -28 17 -19
1 -20 1 -4 -4z"/>
<path d="M870 126 c0 -2 11 -6 25 -8 13 -3 22 -1 19 3 -5 9 -44 13 -44 5z"/>
<path d="M988 123 c6 -2 18 -2 25 0 6 3 1 5 -13 5 -14 0 -19 -2 -12 -5z"/>
<path d="M1108 123 c7 -3 16 -2 19 1 4 3 -2 6 -13 5 -11 0 -14 -3 -6 -6z"/>
<path d="M1368 123 c7 -3 16 -2 19 1 4 3 -2 6 -13 5 -11 0 -14 -3 -6 -6z"/>
<path d="M1451 100 c-1 -38 13 -60 39 -59 10 0 9 3 -5 8 -13 5 -22 21 -26 47
l-6 39 -2 -35z"/>
<path d="M1523 85 c0 -27 2 -38 4 -22 2 15 2 37 0 50 -2 12 -4 0 -4 -28z"/>
<path d="M1570 85 c0 -27 2 -46 4 -44 8 8 10 78 3 85 -4 4 -7 -14 -7 -41z"/>
<path d="M1828 123 c7 -3 16 -2 19 1 4 3 -2 6 -13 5 -11 0 -14 -3 -6 -6z"/>
<path d="M1958 120 c17 -7 22 -18 24 -47 l1 -38 4 33 c5 37 -10 62 -36 61 -11
0 -9 -3 7 -9z"/>
<path d="M2090 126 c0 -2 11 -6 25 -8 13 -3 22 -1 19 3 -5 9 -44 13 -44 5z"/>
<path d="M2222 118 c-15 -15 -16 -54 -2 -63 5 -3 7 0 4 9 -4 10 3 16 23 19
l28 4 -28 2 c-33 1 -32 24 1 29 16 2 25 -4 31 -20 6 -14 10 -17 10 -7 1 19
-18 39 -39 39 -9 0 -21 -5 -28 -12z"/>
<path d="M2538 123 c7 -3 16 -2 19 1 4 3 -2 6 -13 5 -11 0 -14 -3 -6 -6z"/>
<path d="M2648 123 c7 -3 16 -2 19 1 4 3 -2 6 -13 5 -11 0 -14 -3 -6 -6z"/>
<path d="M2830 85 c0 -27 2 -46 4 -44 8 8 10 78 3 85 -4 4 -7 -14 -7 -41z"/>
<path d="M2875 121 c14 -5 22 -20 25 -47 l6 -39 5 42 c2 23 1 39 -3 37 -3 -2
-9 0 -13 6 -3 5 -14 10 -23 9 -14 0 -13 -2 3 -8z"/>
<path d="M2948 120 c17 -7 22 -18 24 -47 l1 -38 4 33 c5 37 -10 62 -36 61 -11
0 -9 -3 7 -9z"/>
<path d="M3022 118 c-13 -13 -16 -54 -4 -61 4 -3 7 9 7 26 0 37 31 50 52 21 7
-10 13 -13 13 -8 0 29 -46 44 -68 22z"/>
<path d="M3120 85 c0 -27 2 -46 4 -44 8 8 10 78 3 85 -4 4 -7 -14 -7 -41z"/>
<path d="M3158 123 c7 -3 16 -2 19 1 4 3 -2 6 -13 5 -11 0 -14 -3 -6 -6z"/>
<path d="M3328 123 c6 -2 18 -2 25 0 6 3 1 5 -13 5 -14 0 -19 -2 -12 -5z"/>
<path d="M1335 99 c-4 -12 -3 -25 2 -29 4 -5 8 4 9 21 1 34 -2 37 -11 8z"/>
<path d="M1405 85 c0 -18 3 -31 8 -28 4 2 7 15 7 28 0 13 -3 26 -7 28 -5 3 -8
-10 -8 -28z"/>
<path d="M2472 100 c0 -14 2 -19 5 -12 2 6 2 18 0 25 -3 6 -5 1 -5 -13z"/>
<path d="M3193 80 c0 -25 2 -35 4 -22 2 12 2 32 0 45 -2 12 -4 2 -4 -23z"/>
<path d="M3301 104 c0 -11 3 -14 6 -6 3 7 2 16 -1 19 -3 4 -6 -2 -5 -13z"/>
<path d="M699 98 c-5 -17 -4 -50 3 -54 4 -3 8 9 8 25 0 17 -2 31 -5 31 -3 0
-5 -1 -6 -2z"/>
<path d="M919 98 c-5 -17 -4 -50 3 -54 4 -3 8 9 8 25 0 17 -2 31 -5 31 -3 0
-5 -1 -6 -2z"/>
<path d="M1070 84 c0 -7 5 -16 12 -20 6 -4 8 -3 4 4 -4 6 5 12 21 14 28 3 28
4 -4 9 -23 4 -33 2 -33 -7z"/>
<path d="M1264 86 c-3 -8 -4 -23 -2 -33 3 -11 6 -6 9 15 6 34 2 42 -7 18z"/>
<path d="M1835 90 l-40 -7 37 -2 c20 0 40 4 43 9 3 6 5 9 3 9 -2 -1 -21 -5
-43 -9z"/>
<path d="M2060 86 c0 -8 4 -17 9 -20 5 -4 7 3 4 14 -6 23 -13 26 -13 6z"/>
<path d="M2501 84 c0 -11 3 -14 6 -6 3 7 2 16 -1 19 -3 4 -6 -2 -5 -13z"/>
<path d="M2581 84 c0 -11 3 -14 6 -6 3 7 2 16 -1 19 -3 4 -6 -2 -5 -13z"/>
<path d="M2611 84 c0 -11 3 -14 6 -6 3 7 2 16 -1 19 -3 4 -6 -2 -5 -13z"/>
<path d="M526 75 c4 -8 11 -15 16 -15 6 0 5 6 -2 15 -7 8 -14 15 -16 15 -2 0
-1 -7 2 -15z"/>
<path d="M3038 83 c6 -2 18 -2 25 0 6 3 1 5 -13 5 -14 0 -19 -2 -12 -5z"/>
<path d="M3330 83 c8 -3 22 -11 30 -17 13 -10 13 -9 1 7 -7 9 -21 17 -30 16
-13 0 -14 -1 -1 -6z"/>
<path d="M260 71 c0 -7 -4 -9 -10 -6 -5 3 -10 2 -10 -4 0 -5 4 -12 9 -15 10
-6 25 24 16 32 -3 3 -5 0 -5 -7z"/>
<path d="M960 71 c0 -6 4 -13 10 -16 6 -3 7 1 4 9 -7 18 -14 21 -14 7z"/>
<path d="M1717 53 c3 -7 9 -10 14 -7 14 8 11 21 -5 21 -8 0 -12 -6 -9 -14z"/>
<path d="M1809 58 c7 -10 23 -17 35 -17 20 1 20 2 1 6 -11 3 -27 10 -35 17
-13 10 -13 9 -1 -6z"/>
<path d="M2450 60 c-9 -6 -10 -10 -3 -10 6 0 15 5 18 10 8 12 4 12 -15 0z"/>
<path d="M160 49 c0 -5 5 -7 10 -4 6 3 10 8 10 11 0 2 -4 4 -10 4 -5 0 -10 -5
-10 -11z"/>
<path d="M868 48 c5 -5 16 -8 23 -6 8 3 3 7 -10 11 -17 4 -21 3 -13 -5z"/>
<path d="M358 43 c7 -3 16 -2 19 1 4 3 -2 6 -13 5 -11 0 -14 -3 -6 -6z"/>
<path d="M658 43 c7 -3 16 -2 19 1 4 3 -2 6 -13 5 -11 0 -14 -3 -6 -6z"/>
<path d="M1108 43 c7 -3 16 -2 19 1 4 3 -2 6 -13 5 -11 0 -14 -3 -6 -6z"/>
<path d="M1368 43 c7 -3 16 -2 19 1 4 3 -2 6 -13 5 -11 0 -14 -3 -6 -6z"/>
<path d="M2098 43 c7 -3 16 -2 19 1 4 3 -2 6 -13 5 -11 0 -14 -3 -6 -6z"/>
<path d="M2248 43 c7 -3 16 -2 19 1 4 3 -2 6 -13 5 -11 0 -14 -3 -6 -6z"/>
<path d="M2538 43 c7 -3 16 -2 19 1 4 3 -2 6 -13 5 -11 0 -14 -3 -6 -6z"/>
<path d="M2648 43 c7 -3 16 -2 19 1 4 3 -2 6 -13 5 -11 0 -14 -3 -6 -6z"/>
<path d="M2748 43 c7 -3 16 -2 19 1 4 3 -2 6 -13 5 -11 0 -14 -3 -6 -6z"/>
<path d="M3048 43 c7 -3 16 -2 19 1 4 3 -2 6 -13 5 -11 0 -14 -3 -6 -6z"/>
<path d="M3318 43 c6 -2 18 -2 25 0 6 3 1 5 -13 5 -14 0 -19 -2 -12 -5z"/>
<path d="M1022 24 c-7 -8 -8 -14 -3 -14 10 0 25 19 20 25 -2 1 -10 -3 -17 -11z"/>
</g>
</svg>
