<svg width="164" height="131" viewBox="0 0 164 131" fill="none" xmlns="http://www.w3.org/2000/svg">
<path d="M73.6002 0.933273C73.0669 1.33328 72.6669 3.73328 72.6669 6.26661C72.6669 9.99994 72.2669 10.6666 69.4669 10.6666C64.0002 10.6666 62.0002 12.1333 62.0002 15.9999V19.5999L49.0669 20.3999C30.1335 21.7333 30.6669 21.3333 23.8669 34.9333C18.1335 46.2666 15.3335 48.6666 15.3335 42.1333C15.3335 39.4666 14.5335 38.9333 9.73353 38.2666C1.46686 37.1999 -3.19981 41.7333 4.40019 43.4666C10.0002 44.7999 15.3335 47.8666 15.3335 49.7333C15.3335 50.5333 12.9335 52.6666 10.0002 54.3999C1.20019 59.3333 0.000193119 63.3333 1.86686 80.6666C2.80019 88.6666 4.00019 100.667 4.40019 107.333L5.33353 119.333L19.6002 119.733L33.8669 120.133L34.8002 116.667C36.1335 111.333 33.4669 109.333 24.5335 109.333C20.1335 109.333 16.6669 108.8 16.6669 108C16.6669 107.2 25.0669 106.667 39.3335 106.667H62.0002V117.067C62.0002 123.333 62.6669 128.133 63.6002 129.067C65.8669 131.333 148.8 131.333 151.067 129.067C152 128.133 152.667 125.467 152.667 123.067C152.667 119.2 153.067 118.667 156.4 118.667C158.4 118.667 160.8 118 161.734 117.067C164 114.8 164 3.86661 161.734 1.59995C160.534 0.399948 148.8 -6.10352e-05 117.334 -6.10352e-05C93.7335 -6.10352e-05 74.0002 0.399948 73.6002 0.933273ZM134.934 21.3333C135.067 26.1333 135.2 30.6666 135.2 31.5999C135.334 32.5333 138.267 33.3333 143.067 33.5999L150.667 33.9999L151.067 78.9333C151.2 110.667 150.934 124 149.867 124C146.534 124 128 116.933 120.934 113.067L113.334 108.667L124 107.867L134.667 107.2L123.067 106.933C111.734 106.667 111.467 106.667 104.4 100.933L97.3335 95.3333L115.734 94.9333C140.667 94.3999 139.867 91.9999 114.667 91.9999H95.4669L92.0002 87.0666C90.1335 84.2666 88.6669 81.5999 88.6669 81.0666C88.6669 80.5333 99.0669 79.8666 111.734 79.5999L134.667 79.1999L110.534 78.9333L86.5335 78.6666L84.2669 73.9999C83.0669 71.3333 82.0002 68.6666 82.0002 67.9999C82.0002 67.1999 92.9335 66.5333 108.4 66.2666L134.667 65.9999L107.734 65.5999L80.8002 65.3333L78.6669 58.2666C76.4002 51.0666 74.2669 17.9999 75.7335 14.1333C76.5335 12.1333 80.0002 11.9999 105.6 12.2666L134.667 12.6666L134.934 21.3333ZM143.2 23.3333C146.134 27.3333 148.667 30.9333 148.667 31.3333C148.667 31.7333 146 31.9999 142.667 31.9999H136.667V23.9999C136.667 19.5999 136.934 15.9999 137.2 15.9999C137.467 15.9999 140.134 19.3333 143.2 23.3333ZM62.0002 41.5999V56.3999L43.0669 55.4666C32.5335 54.9333 23.7335 54.1333 23.3335 53.8666C23.0669 53.4666 25.6002 47.5999 28.9335 40.7999L35.2002 28.2666L45.6002 27.3333C51.3335 26.9333 56.9335 26.3999 58.0002 26.1333C59.0669 25.9999 60.4002 25.9999 61.0669 26.2666C61.6002 26.5333 62.0002 33.4666 62.0002 41.5999ZM23.6002 69.4666C37.0669 74.6666 37.8669 75.1999 34.6669 78.6666C32.8002 80.6666 30.5335 81.3333 24.8002 81.3333C18.4002 81.3333 16.9335 80.7999 13.0669 77.0666C8.93353 73.0666 7.46686 68.3999 9.60019 66.2666C10.9335 64.7999 11.6002 65.0666 23.6002 69.4666ZM61.7335 78.9333L62.1335 82.6666H52.1335C46.5335 82.6666 42.0002 82.2666 42.0002 81.5999C42.0002 81.0666 42.9335 79.1999 44.1335 77.5999C46.0002 74.9333 47.2002 74.5333 53.7335 74.9333C60.9335 75.3333 61.3335 75.5999 61.7335 78.9333ZM61.7335 94.9333L61.3335 99.3333L50.0002 99.7333C37.8669 100.133 34.9335 98.7999 36.2669 93.3333C36.9335 90.9333 38.1335 90.6666 49.6002 90.6666H62.1335L61.7335 94.9333Z" fill="#5A4EF9"/>
</svg>
